<svg width="15" height="24" viewBox="0 0 15 24" fill="none" xmlns="http://www.w3.org/2000/svg">
<g clip-path="url(#clip0_13913_8943)">
<path d="M0.500059 1.99981C0.499602 1.76616 0.580977 1.53972 0.730059 1.35981C0.814008 1.25855 0.917109 1.17485 1.03346 1.1135C1.1498 1.05214 1.27711 1.01435 1.40809 1.00227C1.53906 0.990195 1.67114 1.00408 1.79674 1.04312C1.92234 1.08217 2.03901 1.14561 2.14006 1.22981L7.50006 5.70981L12.8701 1.38981C12.9723 1.30674 13.09 1.24471 13.2164 1.20728C13.3427 1.16985 13.4752 1.15775 13.6062 1.17169C13.7373 1.18563 13.8643 1.22533 13.9799 1.2885C14.0955 1.35168 14.1975 1.43708 14.2801 1.53981C14.3711 1.64327 14.4398 1.76444 14.4818 1.8957C14.5237 2.02696 14.5381 2.16549 14.5241 2.30258C14.51 2.43967 14.4677 2.57238 14.3999 2.69236C14.3321 2.81234 14.2402 2.91701 14.1301 2.99981L8.13006 7.82981C7.95113 7.97689 7.72668 8.05729 7.49506 8.05729C7.26343 8.05729 7.03899 7.97689 6.86006 7.82981L0.86006 2.82981C0.739042 2.72949 0.643378 2.60206 0.58083 2.45785C0.518281 2.31364 0.490608 2.15671 0.500059 1.99981Z" fill="white"/>
</g>
<g clip-path="url(#clip1_13913_8943)">
<path d="M0.500059 9.99981C0.499602 9.76616 0.580977 9.53972 0.730059 9.35981C0.814008 9.25855 0.917109 9.17485 1.03346 9.1135C1.1498 9.05214 1.27711 9.01435 1.40809 9.00227C1.53906 8.9902 1.67114 9.00408 1.79674 9.04312C1.92234 9.08217 2.03901 9.14561 2.14006 9.22981L7.50006 13.7098L12.8701 9.38981C12.9723 9.30674 13.09 9.24471 13.2164 9.20728C13.3427 9.16985 13.4752 9.15775 13.6062 9.17169C13.7373 9.18563 13.8643 9.22533 13.9799 9.2885C14.0955 9.35168 14.1975 9.43708 14.2801 9.53981C14.3711 9.64327 14.4398 9.76444 14.4818 9.8957C14.5237 10.027 14.5381 10.1655 14.5241 10.3026C14.51 10.4397 14.4677 10.5724 14.3999 10.6924C14.3321 10.8123 14.2402 10.917 14.1301 10.9998L8.13006 15.8298C7.95113 15.9769 7.72668 16.0573 7.49506 16.0573C7.26343 16.0573 7.03899 15.9769 6.86006 15.8298L0.86006 10.8298C0.739042 10.7295 0.643378 10.6021 0.58083 10.4578C0.518281 10.3136 0.490608 10.1567 0.500059 9.99981Z" fill="white"/>
</g>
<g clip-path="url(#clip2_13913_8943)">
<path d="M0.500059 16.9998C0.499602 16.7662 0.580977 16.5397 0.730059 16.3598C0.814008 16.2585 0.917109 16.1748 1.03346 16.1135C1.1498 16.0521 1.27711 16.0143 1.40809 16.0023C1.53906 15.9902 1.67114 16.0041 1.79674 16.0431C1.92234 16.0822 2.03901 16.1456 2.14006 16.2298L7.50006 20.7098L12.8701 16.3898C12.9723 16.3067 13.09 16.2447 13.2164 16.2073C13.3427 16.1698 13.4752 16.1578 13.6062 16.1717C13.7373 16.1856 13.8643 16.2253 13.9799 16.2885C14.0955 16.3517 14.1975 16.4371 14.2801 16.5398C14.3711 16.6433 14.4398 16.7644 14.4818 16.8957C14.5237 17.027 14.5381 17.1655 14.5241 17.3026C14.51 17.4397 14.4677 17.5724 14.3999 17.6924C14.3321 17.8123 14.2402 17.917 14.1301 17.9998L8.13006 22.8298C7.95113 22.9769 7.72668 23.0573 7.49506 23.0573C7.26343 23.0573 7.03899 22.9769 6.86006 22.8298L0.86006 17.8298C0.739042 17.7295 0.643378 17.6021 0.58083 17.4578C0.518281 17.3136 0.490608 17.1567 0.500059 16.9998Z" fill="white"/>
</g>
<defs>
<clipPath id="clip0_13913_8943">
<rect width="9" height="15" fill="white" transform="translate(15) rotate(90)"/>
</clipPath>
<clipPath id="clip1_13913_8943">
<rect width="9" height="15" fill="white" transform="translate(15 8) rotate(90)"/>
</clipPath>
<clipPath id="clip2_13913_8943">
<rect width="9" height="15" fill="white" transform="translate(15 15) rotate(90)"/>
</clipPath>
</defs>
</svg>
