<svg width="18" height="18" viewBox="0 0 18 18" fill="none" xmlns="http://www.w3.org/2000/svg">
<rect x="-0.000976562" width="18" height="18" rx="9" fill="#00AB4C"/>
<path d="M10.0797 3.59961H7.19952V4.55967H10.0797V3.59961ZM8.15958 9.84H9.11964V6.95982H8.15958V9.84ZM12.0142 6.667L12.6959 5.98536C12.4895 5.74054 12.2638 5.51013 12.019 5.30852L11.3374 5.99016C10.5728 5.37492 9.62095 5.03955 8.63961 5.0397C6.25386 5.0397 4.31934 6.97422 4.31934 9.35997C4.31934 11.7457 6.24906 13.6802 8.63961 13.6802C9.45293 13.6807 10.2498 13.4514 10.9385 13.0187C11.6272 12.5861 12.1797 11.9677 12.5324 11.2348C12.885 10.502 13.0235 9.68436 12.9318 8.87622C12.8401 8.06809 12.5221 7.30228 12.0142 6.667ZM8.63961 12.7202C6.78189 12.7202 5.2794 11.2177 5.2794 9.35997C5.2794 7.50225 6.78189 5.99976 8.63961 5.99976C10.4973 5.99976 11.9998 7.50225 11.9998 9.35997C11.9998 11.2177 10.4973 12.7202 8.63961 12.7202Z" fill="#F2FBF6"/>
</svg>
