<svg width="50" height="50" viewBox="0 0 50 50" fill="none" xmlns="http://www.w3.org/2000/svg">
<g clip-path="url(#clip0_7897_101768)">
<path d="M25 46.875C19.1984 46.875 13.6344 44.5703 9.53204 40.468C5.42968 36.3656 3.125 30.8016 3.125 25C3.125 19.1984 5.42968 13.6344 9.53204 9.53204C13.6344 5.42968 19.1984 3.125 25 3.125C30.8016 3.125 36.3656 5.42968 40.468 9.53204C44.5703 13.6344 46.875 19.1984 46.875 25C46.875 30.8016 44.5703 36.3656 40.468 40.468C36.3656 44.5703 30.8016 46.875 25 46.875ZM25 50C31.6304 50 37.9893 47.3661 42.6777 42.6777C47.3661 37.9893 50 31.6304 50 25C50 18.3696 47.3661 12.0107 42.6777 7.32233C37.9893 2.63392 31.6304 0 25 0C18.3696 0 12.0107 2.63392 7.32233 7.32233C2.63392 12.0107 0 18.3696 0 25C0 31.6304 2.63392 37.9893 7.32233 42.6777C12.0107 47.3661 18.3696 50 25 50Z" fill="#00AB4C"/>
<path d="M34.2812 15.5313C34.2589 15.5528 34.2381 15.5758 34.2187 15.6L23.3656 29.4281L16.825 22.8844C16.3807 22.4704 15.793 22.245 15.1858 22.2557C14.5786 22.2664 13.9993 22.5124 13.5699 22.9418C13.1405 23.3712 12.8945 23.9506 12.8838 24.5578C12.8731 25.165 13.0985 25.7526 13.5125 26.1969L21.7812 34.4688C22.004 34.6911 22.2692 34.8663 22.5612 34.9839C22.8531 35.1016 23.1657 35.1592 23.4804 35.1533C23.7951 35.1475 24.1054 35.0783 24.3928 34.95C24.6801 34.8216 24.9387 34.6367 25.1531 34.4063L37.6281 18.8125C38.0529 18.3667 38.2851 17.7716 38.2746 17.1559C38.2641 16.5401 38.0117 15.9533 37.572 15.5222C37.1323 15.0911 36.5405 14.8504 35.9247 14.8521C35.3089 14.8538 34.7186 15.0977 34.2812 15.5313Z" fill="#00AB4C"/>
</g>
<defs>
<clipPath id="clip0_7897_101768">
<rect width="50" height="50" fill="white"/>
</clipPath>
</defs>
</svg>
