<svg width="44" height="44" viewBox="0 0 44 44" fill="none" xmlns="http://www.w3.org/2000/svg">
<circle cx="21.75" cy="22.25" r="21.75" fill="#0333FF"/>
<g clip-path="url(#clip0_7897_101731)">
<path d="M19.9375 21.9572H22V23.3322H19.9375V21.9572Z" fill="white"/>
<path d="M27.8094 20.0111C26.5901 18.0159 24.9267 16.329 22.9487 15.0818C22.035 14.5026 20.9934 14.156 19.9148 14.0721C18.8363 13.9882 17.7536 14.1696 16.7613 14.6005C15.8933 15.0099 15.138 15.6245 14.5607 16.391C13.9833 17.1576 13.6013 18.0532 13.4475 19.0005C13.3925 19.3236 13.3513 19.633 13.31 19.9355C12.6663 20.0398 12.0807 20.3695 11.6575 20.8657C11.2344 21.3618 11.0014 21.9922 11 22.6443V26.8586C11 27.2233 11.1449 27.573 11.4027 27.8309C11.6606 28.0888 12.0103 28.2336 12.375 28.2336V22.6443C12.375 22.2796 12.5199 21.9298 12.7777 21.672C13.0356 21.4141 13.3853 21.2693 13.75 21.2693H26.6269C27.9519 21.2711 29.2221 21.7982 30.1591 22.7352C31.096 23.6721 31.6232 24.9424 31.625 26.2674V26.7693H30.25C29.9596 26.0612 29.4188 25.4849 28.7305 25.1502C28.0423 24.8155 27.255 24.7459 26.5188 24.9547C25.7825 25.1635 25.1489 25.6361 24.7389 26.2822C24.3289 26.9284 24.1711 27.7029 24.2957 28.4579C24.4203 29.213 24.8185 29.8958 25.4144 30.3759C26.0103 30.8561 26.7621 31.1001 27.5264 31.0613C28.2906 31.0225 29.0139 30.7037 29.5581 30.1657C30.1023 29.6276 30.4294 28.9081 30.4769 28.1443H31.625C31.9897 28.1443 32.3394 27.9994 32.5973 27.7415C32.8551 27.4837 33 27.1339 33 26.7693V26.2674C32.9972 24.7837 32.4775 23.3474 31.5301 22.2055C30.5827 21.0637 29.267 20.2877 27.8094 20.0111ZM17.1875 19.8943H14.3894C14.3894 19.6811 14.4512 19.4611 14.4925 19.2068C14.6113 18.4515 14.9213 17.7392 15.393 17.1375C15.8647 16.5359 16.4824 16.0648 17.1875 15.7693V19.8943ZM18.5625 19.8943V15.4805C19.846 15.3138 21.1477 15.5955 22.2475 16.278C23.7488 17.2131 25.0446 18.4434 26.0562 19.8943H18.5625ZM27.3625 29.7805C27.0226 29.7805 26.6903 29.6797 26.4076 29.4908C26.125 29.302 25.9047 29.0336 25.7746 28.7195C25.6445 28.4054 25.6105 28.0599 25.6768 27.7264C25.7431 27.393 25.9068 27.0868 26.1472 26.8464C26.3875 26.606 26.6938 26.4424 27.0272 26.376C27.3606 26.3097 27.7062 26.3438 28.0202 26.4738C28.3343 26.6039 28.6027 26.8242 28.7916 27.1069C28.9804 27.3895 29.0812 27.7218 29.0812 28.0618C29.0812 28.5176 28.9002 28.9548 28.5778 29.2771C28.2555 29.5994 27.8183 29.7805 27.3625 29.7805Z" fill="white"/>
<path d="M19.367 26.7688C19.0766 26.0608 18.5357 25.4844 17.8475 25.1498C17.1593 24.8151 16.372 24.7455 15.6357 24.9543C14.8995 25.1631 14.2659 25.6357 13.8559 26.2818C13.4458 26.928 13.2881 27.7025 13.4127 28.4575C13.5372 29.2126 13.9355 29.8953 14.5313 30.3755C15.1272 30.8557 15.879 31.0997 16.6433 31.0609C17.4076 31.0221 18.1309 30.7033 18.6751 30.1652C19.2193 29.6272 19.5463 28.9076 19.5938 28.1438H23.2376V27.972C23.224 27.5663 23.2703 27.1609 23.3751 26.7688H19.367ZM16.5001 29.7801C16.1602 29.7801 15.8279 29.6793 15.5452 29.4904C15.2626 29.3016 15.0423 29.0331 14.9122 28.7191C14.7821 28.405 14.7481 28.0594 14.8144 27.726C14.8807 27.3926 15.0444 27.0864 15.2848 26.846C15.5251 26.6056 15.8314 26.4419 16.1648 26.3756C16.4982 26.3093 16.8438 26.3433 17.1578 26.4734C17.4719 26.6035 17.7403 26.8238 17.9292 27.1064C18.118 27.3891 18.2188 27.7214 18.2188 28.0613C18.2188 28.5172 18.0378 28.9543 17.7154 29.2767C17.3931 29.599 16.9559 29.7801 16.5001 29.7801Z" fill="white"/>
</g>
<defs>
<clipPath id="clip0_7897_101731">
<rect width="22" height="17.6" fill="white" transform="translate(11 13.5)"/>
</clipPath>
</defs>
</svg>
