<svg width="22" height="18" viewBox="0 0 22 18" fill="none" xmlns="http://www.w3.org/2000/svg">
<g clip-path="url(#clip0_7008_92337)">
<path d="M8.93762 8.45728H11.0001V9.83228H8.93762V8.45728Z" fill="#55575F"/>
<path d="M16.8095 6.51123C15.5902 4.51597 13.9268 2.82906 11.9489 1.58185C11.0351 1.00273 9.99349 0.656091 8.91493 0.572203C7.83638 0.488315 6.75368 0.669727 5.76137 1.1006C4.89341 1.51001 4.13814 2.12454 3.56081 2.89113C2.98347 3.65772 2.60141 4.55333 2.44762 5.5006C2.39262 5.82372 2.35137 6.1331 2.31012 6.4356C1.66645 6.53993 1.08079 6.86959 0.657668 7.36575C0.234549 7.86191 0.00150276 8.49228 0.00012207 9.14435V13.3587C0.00012207 13.7234 0.144988 14.0731 0.40285 14.331C0.660713 14.5889 1.01045 14.7337 1.37512 14.7337V9.14435C1.37512 8.77968 1.51999 8.42994 1.77785 8.17208C2.03571 7.91422 2.38545 7.76935 2.75012 7.76935H15.627C16.952 7.77117 18.2223 8.29834 19.1592 9.23528C20.0961 10.1722 20.6233 11.4424 20.6251 12.7675V13.2694H19.2501C18.9598 12.5613 18.4189 11.985 17.7307 11.6503C17.0425 11.3156 16.2551 11.246 15.5189 11.4548C14.7827 11.6636 14.1491 12.1362 13.739 12.7823C13.329 13.4285 13.1712 14.203 13.2958 14.958C13.4204 15.7131 13.8186 16.3959 14.4145 16.876C15.0104 17.3562 15.7622 17.6002 16.5265 17.5614C17.2908 17.5226 18.014 17.2038 18.5582 16.6657C19.1024 16.1277 19.4295 15.4081 19.477 14.6444H20.6251C20.9898 14.6444 21.3395 14.4995 21.5974 14.2416C21.8553 13.9838 22.0001 13.634 22.0001 13.2694V12.7675C21.9974 11.2838 21.4776 9.84748 20.5302 8.70563C19.5829 7.56379 18.2672 6.78781 16.8095 6.51123ZM6.18762 6.39435H3.3895C3.3895 6.18123 3.45137 5.96123 3.49262 5.70685C3.6114 4.9516 3.92138 4.23929 4.39308 3.63762C4.86479 3.03596 5.48255 2.56494 6.18762 2.26935V6.39435ZM7.56262 6.39435V1.9806C8.84615 1.81392 10.1479 2.09564 11.2476 2.7781C12.7489 3.71322 14.0447 4.9435 15.0564 6.39435H7.56262ZM16.3626 16.2806C16.0227 16.2806 15.6904 16.1798 15.4077 15.9909C15.1251 15.8021 14.9048 15.5336 14.7747 15.2196C14.6446 14.9055 14.6106 14.5599 14.6769 14.2265C14.7432 13.8931 14.9069 13.5869 15.1473 13.3465C15.3877 13.1061 15.6939 12.9424 16.0273 12.8761C16.3607 12.8098 16.7063 12.8438 17.0204 12.9739C17.3344 13.104 17.6029 13.3243 17.7917 13.607C17.9806 13.8896 18.0814 14.2219 18.0814 14.5618C18.0814 15.0177 17.9003 15.4549 17.578 15.7772C17.2556 16.0995 16.8185 16.2806 16.3626 16.2806Z" fill="#55575F"/>
<path d="M8.36709 13.2689C8.07673 12.5608 7.53584 11.9845 6.84764 11.6498C6.15943 11.3151 5.37209 11.2455 4.63586 11.4544C3.89962 11.6632 3.26604 12.1357 2.856 12.7819C2.44597 13.428 2.28819 14.2025 2.41277 14.9576C2.53736 15.7126 2.93558 16.3954 3.53146 16.8756C4.12734 17.3557 4.87916 17.5997 5.64344 17.5609C6.40773 17.5221 7.13098 17.2033 7.67519 16.6653C8.2194 16.1273 8.54646 15.4077 8.59397 14.6439H12.2377V14.472C12.2241 14.0664 12.2704 13.661 12.3752 13.2689H8.36709ZM5.50022 16.2801C5.16028 16.2801 4.82798 16.1793 4.54533 15.9905C4.26268 15.8016 4.04239 15.5332 3.9123 15.2191C3.78221 14.9051 3.74817 14.5595 3.81449 14.2261C3.88081 13.8927 4.04451 13.5864 4.28488 13.3461C4.52525 13.1057 4.8315 12.942 5.16491 12.8757C5.49831 12.8094 5.84389 12.8434 6.15795 12.9735C6.47201 13.1036 6.74045 13.3239 6.92931 13.6065C7.11816 13.8892 7.21897 14.2215 7.21897 14.5614C7.21897 15.0172 7.03789 15.4544 6.71556 15.7767C6.39323 16.0991 5.95606 16.2801 5.50022 16.2801Z" fill="#55575F"/>
</g>
<defs>
<clipPath id="clip0_7008_92337">
<rect width="22" height="17.6" fill="white"/>
</clipPath>
</defs>
</svg>
