<svg width="44" height="44" viewBox="0 0 44 44" fill="none" xmlns="http://www.w3.org/2000/svg">
<circle cx="21.75" cy="22.25" r="21.75" fill="#00AB4C"/>
<path d="M21.5 17.2922C21.7763 17.2922 22.0412 17.1824 22.2366 16.9871C22.4319 16.7917 22.5417 16.5268 22.5417 16.2505C22.5417 15.9743 22.4319 15.7093 22.2366 15.5139C22.0412 15.3186 21.7763 15.2089 21.5 15.2089C21.2237 15.2089 20.9588 15.3186 20.7634 15.5139C20.5681 15.7093 20.4583 15.9743 20.4583 16.2505C20.4583 16.5268 20.5681 16.7917 20.7634 16.9871C20.9588 17.1824 21.2237 17.2922 21.5 17.2922ZM22.201 12.3161C21.9986 12.165 21.7527 12.0833 21.5 12.0833C21.2473 12.0833 21.0014 12.165 20.799 12.3161L12.4948 18.5151C11.7917 19.0396 12.163 20.1568 13.0396 20.1568H13.6875V26.4094C13.2199 26.6312 12.8249 26.9811 12.5483 27.4184C12.2717 27.8558 12.1249 28.3627 12.125 28.8802V30.7031C12.125 31.0625 12.4167 31.3542 12.776 31.3542H30.224C30.5833 31.3542 30.875 31.0625 30.875 30.7031V28.8802C30.8751 28.3627 30.7283 27.8558 30.4517 27.4184C30.1751 26.9811 29.7801 26.6312 29.3125 26.4094V20.1562H29.9604C30.8375 20.1562 31.2083 19.0391 30.5057 18.5146L22.201 12.3161ZM28.0104 26.1458H25.6667V20.1562H28.0104V26.1458ZM24.3646 26.1458H22.151V20.1562H24.3646V26.1458ZM20.849 26.1458H18.6354V20.1562H20.849V26.1458ZM17.3333 26.1458H14.9896V20.1562H17.3333V26.1458ZM14.2156 18.8547L21.5 13.4172L28.7839 18.8547H14.2156ZM13.4271 28.8807C13.4271 28.5009 13.578 28.1366 13.8466 27.8679C14.1152 27.5993 14.4795 27.4484 14.8594 27.4484H28.1406C28.5205 27.4484 28.8848 27.5993 29.1534 27.8679C29.422 28.1366 29.5729 28.5009 29.5729 28.8807V30.0526H13.4271V28.8807Z" fill="white"/>
</svg>
