<svg width="20" height="19" viewBox="0 0 20 19" fill="none" xmlns="http://www.w3.org/2000/svg">
<path d="M12.7697 15.5767C13.5571 15.8005 14.3729 15.9138 15.1927 15.9129C15.7001 15.9137 16.205 15.8705 16.7016 15.7848C18.1675 15.5317 19.1828 13.9917 18.3253 12.7761V12.7761C17.8547 12.1089 17.1749 11.6102 16.3887 11.3555C15.6026 11.1007 14.7531 11.1038 13.9689 11.3644C13.1848 11.6249 12.5087 12.1287 12.0433 12.7993M12.7697 15.5767V15.574C12.7697 14.5681 12.5067 13.6218 12.0442 12.7993M12.7697 15.5767V15.5767C12.7697 15.6361 12.7384 15.6911 12.687 15.7208C10.9303 16.7371 8.926 17.272 6.88441 17.2687C4.76819 17.2687 2.78591 16.7047 1.08599 15.7222C1.03306 15.6916 1.00057 15.6351 1 15.574V15.574C0.999293 14.2946 1.43347 13.0514 2.2341 12.0403C3.03472 11.0293 4.15623 10.3079 5.42183 9.98988C6.68743 9.67188 8.02513 9.77539 9.22401 10.2841C10.4229 10.7927 11.4148 11.6777 12.0433 12.7993M9.08816 6.20731C9.67239 5.63526 10.0006 4.85938 10.0006 4.05037L-nan -nanL-nan -nanL10.0006 4.05037C10.0006 3.24136 9.67239 2.46549 9.08816 1.89343C8.50393 1.32138 7.71155 1 6.88533 1C6.05911 1 5.26673 1.32138 4.6825 1.89343C4.09827 2.46549 3.77006 3.24136 3.77006 4.05037C3.77006 4.85938 4.09827 5.63526 4.6825 6.20731C5.26673 6.77937 6.05911 7.10075 6.88533 7.10075C7.71155 7.10075 8.50393 6.77937 9.08816 6.20731ZM16.906 7.76157C17.3604 7.31664 17.6157 6.71318 17.6157 6.08395L-nan -nanL-nan -nanL17.6157 6.08395C17.6157 5.45472 17.3604 4.85127 16.906 4.40633C16.4516 3.9614 15.8353 3.71144 15.1927 3.71144C14.5501 3.71144 13.9338 3.9614 13.4794 4.40633C13.025 4.85127 12.7697 5.45472 12.7697 6.08395C12.7697 6.71318 13.025 7.31664 13.4794 7.76157C13.9338 8.20651 14.5501 8.45647 15.1927 8.45647C15.8353 8.45647 16.4516 8.20651 16.906 7.76157Z" stroke="#55575F" stroke-width="1.5" stroke-linecap="round" stroke-linejoin="round"/>
</svg>
