<svg width="18" height="21" viewBox="0 0 18 21" fill="none" xmlns="http://www.w3.org/2000/svg">
<path d="M9.00257 0.80807C9.15417 0.595252 9.34894 0.415308 9.57471 0.279466C9.80049 0.143624 10.0524 0.0548001 10.3148 0.018535C10.5772 -0.0177301 10.8444 -0.000657633 11.0998 0.0686872C11.3551 0.138032 11.5932 0.258161 11.799 0.421579L16.0033 3.76403C16.3789 4.06252 16.6263 4.48835 16.6963 4.95707C16.7663 5.42578 16.6539 5.90315 16.3813 6.29448H14.8127L15.3141 5.59074C15.4075 5.46039 15.4469 5.30024 15.4245 5.14257C15.4021 4.98489 15.3194 4.84139 15.1933 4.74096L13.0281 3.02127L10.719 6.29448H9.15429L12.0266 2.22562L10.9877 1.39977C10.9191 1.34527 10.8398 1.3052 10.7547 1.28205C10.6696 1.25891 10.5805 1.25318 10.4931 1.26523C10.4056 1.27728 10.3216 1.30684 10.2464 1.35208C10.1711 1.39733 10.1061 1.45727 10.0556 1.52818L6.66 6.29322H5.09143L9.00257 0.80807ZM13.5 13.8481C13.3295 13.8481 13.166 13.9144 13.0454 14.0324C12.9249 14.1505 12.8571 14.3106 12.8571 14.4775C12.8571 14.6445 12.9249 14.8046 13.0454 14.9226C13.166 15.0407 13.3295 15.107 13.5 15.107H14.7857C14.9562 15.107 15.1197 15.0407 15.2403 14.9226C15.3608 14.8046 15.4286 14.6445 15.4286 14.4775C15.4286 14.3106 15.3608 14.1505 15.2403 14.0324C15.1197 13.9144 14.9562 13.8481 14.7857 13.8481H13.5ZM1.92857 5.03555H4.71729L3.81729 6.29448H1.92857C1.75808 6.29448 1.59456 6.3608 1.474 6.47885C1.35344 6.59689 1.28571 6.757 1.28571 6.92395C1.28571 7.09089 1.35344 7.251 1.474 7.36904C1.59456 7.48709 1.75808 7.55341 1.92857 7.55341H15.4286C16.1106 7.55341 16.7646 7.81868 17.2468 8.29087C17.7291 8.76306 18 9.40349 18 10.0713V17.6248C18 18.2926 17.7291 18.933 17.2468 19.4052C16.7646 19.8774 16.1106 20.1427 15.4286 20.1427H3.21429C2.3618 20.1427 1.54424 19.8111 0.941442 19.2209C0.338647 18.6306 0 17.8301 0 16.9954V6.92395C0 6.42311 0.203188 5.94279 0.564866 5.58865C0.926543 5.23451 1.41708 5.03555 1.92857 5.03555ZM1.28571 16.9954C1.28571 17.4962 1.4889 17.9765 1.85058 18.3307C2.21226 18.6848 2.7028 18.8838 3.21429 18.8838H15.4286C15.7696 18.8838 16.0966 18.7511 16.3377 18.515C16.5788 18.2789 16.7143 17.9587 16.7143 17.6248V10.0713C16.7143 9.73738 16.5788 9.41717 16.3377 9.18107C16.0966 8.94498 15.7696 8.81234 15.4286 8.81234H1.92857C1.70357 8.81234 1.48629 8.77457 1.28571 8.70533V16.9954Z" fill="#55575F"/>
</svg>
