<svg width="18" height="16" viewBox="0 0 18 16" fill="none" xmlns="http://www.w3.org/2000/svg">
<path d="M0 3.21885C0 2.36516 0.304782 1.54643 0.847298 0.94278C1.38981 0.339128 2.12562 0 2.89286 0H15.1071C15.8744 0 16.6102 0.339128 17.1527 0.94278C17.6952 1.54643 18 2.36516 18 3.21885V12.5178C18 13.3714 17.6952 14.1902 17.1527 14.7938C16.6102 15.3975 15.8744 15.7366 15.1071 15.7366H2.89286C2.12562 15.7366 1.38981 15.3975 0.847298 14.7938C0.304782 14.1902 0 13.3714 0 12.5178V3.21885ZM2.89286 1.4306C2.46662 1.4306 2.05783 1.61901 1.75644 1.95437C1.45504 2.28973 1.28571 2.74458 1.28571 3.21885V4.2918H16.7143V3.21885C16.7143 2.74458 16.545 2.28973 16.2436 1.95437C15.9422 1.61901 15.5334 1.4306 15.1071 1.4306H2.89286ZM1.28571 12.5178C1.28571 12.992 1.45504 13.4469 1.75644 13.7822C2.05783 14.1176 2.46662 14.306 2.89286 14.306H15.1071C15.5334 14.306 15.9422 14.1176 16.2436 13.7822C16.545 13.4469 16.7143 12.992 16.7143 12.5178V5.7224H1.28571V12.5178ZM12.2143 10.0142H14.1429C14.3134 10.0142 14.4769 10.0896 14.5974 10.2237C14.718 10.3579 14.7857 10.5398 14.7857 10.7295C14.7857 10.9192 14.718 11.1012 14.5974 11.2353C14.4769 11.3694 14.3134 11.4448 14.1429 11.4448H12.2143C12.0438 11.4448 11.8803 11.3694 11.7597 11.2353C11.6392 11.1012 11.5714 10.9192 11.5714 10.7295C11.5714 10.5398 11.6392 10.3579 11.7597 10.2237C11.8803 10.0896 12.0438 10.0142 12.2143 10.0142Z" fill="#55575F"/>
</svg>
