<svg width="18" height="21" viewBox="0 0 18 21" fill="none" xmlns="http://www.w3.org/2000/svg">
<path d="M11.5714 4.58218e-06C12.1686 -0.000170942 12.754 0.162539 13.262 0.469889C13.77 0.777239 14.1805 1.21708 14.4475 1.74008C14.7145 2.26309 14.8274 2.84858 14.7736 3.43091C14.7198 4.01324 14.5014 4.56939 14.1429 5.03698L16.7143 5.03572C17.0553 5.03572 17.3823 5.16836 17.6234 5.40445C17.8645 5.64055 18 5.96076 18 6.29465V10.0714C18 10.4053 17.8645 10.7255 17.6234 10.9616C17.3823 11.1977 17.0553 11.3304 16.7143 11.3304V16.9955C16.7143 17.8303 16.3756 18.6308 15.7728 19.221C15.17 19.8113 14.3525 20.1429 13.5 20.1429H4.5C3.64752 20.1429 2.82995 19.8113 2.22716 19.221C1.62436 18.6308 1.28571 17.8303 1.28571 16.9955V11.3304C0.944722 11.3304 0.617695 11.1977 0.376577 10.9616C0.135459 10.7255 0 10.4053 0 10.0714V6.29465C0 5.96076 0.135459 5.64055 0.376577 5.40445C0.617695 5.16836 0.944722 5.03572 1.28571 5.03572L3.85714 5.03698C3.60388 4.70633 3.41961 4.33007 3.31485 3.92969C3.21009 3.52931 3.1869 3.11264 3.24659 2.70349C3.30629 2.29433 3.4477 1.90069 3.66276 1.54504C3.87782 1.1894 4.16231 0.878715 4.5 0.630728C4.83768 0.38274 5.22195 0.202308 5.63085 0.0997316C6.03975 -0.00284463 6.46528 -0.0255556 6.88314 0.0328955C7.301 0.0913467 7.70302 0.229815 8.06623 0.440395C8.42944 0.650975 8.74674 0.929542 9 1.26019C9.29857 0.868348 9.6866 0.550315 10.1331 0.331503C10.5796 0.112692 11.0721 -0.00083125 11.5714 4.58218e-06ZM8.35714 11.3304H2.57143V16.9955C2.57143 17.4964 2.77462 17.9767 3.13629 18.3308C3.49797 18.685 3.98851 18.8839 4.5 18.8839H8.35714V11.3304ZM15.4286 11.3304H9.64286V18.8839H13.5C14.0115 18.8839 14.502 18.685 14.8637 18.3308C15.2254 17.9767 15.4286 17.4964 15.4286 16.9955V11.3304ZM8.35714 6.29465H1.28571V10.0714H8.35714V6.29465ZM16.7143 6.29465H9.64286V10.0714H16.7143V6.29465ZM11.5714 1.25893C11.0599 1.25893 10.5694 1.45789 10.2077 1.81203C9.84604 2.16617 9.64286 2.64649 9.64286 3.14733V5.03572H11.5714C12.0829 5.03572 12.5735 4.83676 12.9351 4.48262C13.2968 4.12848 13.5 3.64816 13.5 3.14733C13.5 2.64649 13.2968 2.16617 12.9351 1.81203C12.5735 1.45789 12.0829 1.25893 11.5714 1.25893ZM6.42857 1.25893C5.93329 1.25917 5.45709 1.44598 5.09865 1.78064C4.7402 2.11531 4.52698 2.57218 4.50318 3.05658C4.47938 3.54098 4.64682 4.01578 4.9708 4.38259C5.29478 4.7494 5.75046 4.98011 6.24343 5.02691L6.42857 5.03572H8.35714V3.14733L8.34814 2.96604C8.30212 2.49878 8.08 2.06505 7.72511 1.74944C7.37022 1.43382 6.90799 1.25896 6.42857 1.25893Z" fill="#55575F"/>
</svg>
