<svg width="18" height="17" viewBox="0 0 18 17" fill="none" xmlns="http://www.w3.org/2000/svg">
<path d="M9 16.6037C8.745 16.6037 8.5314 16.5191 8.3592 16.3499C8.1864 16.1813 8.1 15.9721 8.1 15.7225C8.1 15.4728 8.1864 15.2636 8.3592 15.095C8.5314 14.9258 8.745 14.8412 9 14.8412H15.3V8.58434C15.3 7.73246 15.135 6.93199 14.805 6.18293C14.475 5.43387 14.025 4.78027 13.455 4.22215C12.885 3.66402 12.2175 3.2234 11.4525 2.90027C10.6875 2.57715 9.87 2.41559 9 2.41559C8.13 2.41559 7.3125 2.57715 6.5475 2.90027C5.7825 3.2234 5.115 3.66402 4.545 4.22215C3.975 4.78027 3.525 5.43387 3.195 6.18293C2.865 6.93199 2.7 7.73246 2.7 8.58434V13.0787C2.7 13.3284 2.6139 13.5375 2.4417 13.7062C2.2689 13.8754 2.055 13.96 1.8 13.96C1.305 13.96 0.8814 13.7875 0.5292 13.4427C0.1764 13.0972 0 12.6821 0 12.1975V10.435C0 10.0971 0.0825001 9.79958 0.2475 9.54226C0.4125 9.28552 0.63 9.07637 0.9 8.9148L0.9675 7.74715C1.1025 6.67496 1.4139 5.70559 1.9017 4.83902C2.3889 3.97246 2.9964 3.23809 3.7242 2.6359C4.4514 2.03371 5.2689 1.56724 6.1767 1.23647C7.0839 0.906298 8.025 0.741211 9 0.741211C9.99 0.741211 10.9389 0.906298 11.8467 1.23647C12.7539 1.56724 13.5675 2.03724 14.2875 2.64647C15.0075 3.2563 15.6114 3.99067 16.0992 4.8496C16.5864 5.70911 16.8975 6.66762 17.0325 7.72512L17.1 8.87074C17.37 9.00293 17.5875 9.19739 17.7525 9.45413C17.9175 9.71146 18 9.99434 18 10.3028V12.3296C18 12.6528 17.9175 12.9392 17.7525 13.1889C17.5875 13.4386 17.37 13.6295 17.1 13.7617V14.8412C17.1 15.3259 16.9239 15.741 16.5717 16.0864C16.2189 16.4313 15.795 16.6037 15.3 16.6037H9ZM6.3 10.435C6.045 10.435 5.8314 10.3504 5.6592 10.1812C5.4864 10.0125 5.4 9.8034 5.4 9.55371C5.4 9.30402 5.4864 9.09458 5.6592 8.92538C5.8314 8.75677 6.045 8.67246 6.3 8.67246C6.555 8.67246 6.7689 8.75677 6.9417 8.92538C7.1139 9.09458 7.2 9.30402 7.2 9.55371C7.2 9.8034 7.1139 10.0125 6.9417 10.1812C6.7689 10.3504 6.555 10.435 6.3 10.435ZM11.7 10.435C11.445 10.435 11.2314 10.3504 11.0592 10.1812C10.8864 10.0125 10.8 9.8034 10.8 9.55371C10.8 9.30402 10.8864 9.09458 11.0592 8.92538C11.2314 8.75677 11.445 8.67246 11.7 8.67246C11.955 8.67246 12.1689 8.75677 12.3417 8.92538C12.5139 9.09458 12.6 9.30402 12.6 9.55371C12.6 9.8034 12.5139 10.0125 12.3417 10.1812C12.1689 10.3504 11.955 10.435 11.7 10.435ZM3.6225 9.06902C3.5625 8.20246 3.6864 7.41668 3.9942 6.71168C4.3014 6.00668 4.7136 5.40802 5.2308 4.91569C5.7486 4.42395 6.345 4.0459 7.02 3.78152C7.695 3.51715 8.37 3.38496 9.045 3.38496C10.41 3.38496 11.5914 3.80737 12.5892 4.6522C13.5864 5.49644 14.19 6.55012 14.4 7.81324C12.99 7.79855 11.715 7.42755 10.575 6.70022C9.435 5.97349 8.5725 5.02996 7.9875 3.86965C7.7475 5.05934 7.2414 6.11302 6.4692 7.03069C5.6964 7.94896 4.7475 8.6284 3.6225 9.06902Z" fill="#55575F"/>
</svg>
