<svg width="18" height="18" viewBox="0 0 18 18" fill="none" xmlns="http://www.w3.org/2000/svg">
<rect x="-0.000976562" width="18" height="18" rx="9" fill="#00AB4C"/>
<path d="M10.0794 3.59961H7.19921V4.55967H10.0794V3.59961ZM8.15927 9.84H9.11933V6.95982H8.15927V9.84ZM12.0139 6.667L12.6956 5.98536C12.4891 5.74054 12.2635 5.51013 12.0187 5.30852L11.3371 5.99016C10.5725 5.37492 9.62064 5.03955 8.6393 5.0397C6.25355 5.0397 4.31903 6.97422 4.31903 9.35997C4.31903 11.7457 6.24875 13.6802 8.6393 13.6802C9.45262 13.6807 10.2495 13.4514 10.9382 13.0187C11.6269 12.5861 12.1794 11.9677 12.5321 11.2348C12.8847 10.502 13.0232 9.68436 12.9315 8.87622C12.8398 8.06809 12.5218 7.30228 12.0139 6.667ZM8.6393 12.7202C6.78159 12.7202 5.27909 11.2177 5.27909 9.35997C5.27909 7.50225 6.78159 5.99976 8.6393 5.99976C10.497 5.99976 11.9995 7.50225 11.9995 9.35997C11.9995 11.2177 10.497 12.7202 8.6393 12.7202Z" fill="#F2FBF6"/>
</svg>
