<svg width="44" height="44" viewBox="0 0 44 44" fill="none" xmlns="http://www.w3.org/2000/svg">
<circle cx="21.75" cy="21.75" r="21.75" fill="#FF2D2D"/>
<path d="M30.3109 28.4062C29.2398 26.5263 27.5672 25.0615 25.5624 24.2477C26.5594 23.4999 27.2958 22.4575 27.6674 21.268C28.0389 20.0785 28.0268 18.8023 27.6327 17.62C27.2387 16.4378 26.4826 15.4096 25.4717 14.6809C24.4607 13.9522 23.2461 13.5602 21.9999 13.5602C20.7538 13.5602 19.5392 13.9522 18.5282 14.6809C17.5173 15.4096 16.7612 16.4378 16.3671 17.62C15.9731 18.8023 15.9609 20.0785 16.3325 21.268C16.7041 22.4575 17.4405 23.4999 18.4374 24.2477C16.4327 25.0615 14.7601 26.5263 13.689 28.4062C13.6226 28.513 13.5784 28.6319 13.5589 28.7561C13.5395 28.8803 13.5451 29.0071 13.5757 29.129C13.6062 29.2509 13.6609 29.3654 13.7366 29.4658C13.8122 29.5661 13.9073 29.6502 14.0161 29.7131C14.1249 29.776 14.2453 29.8163 14.37 29.8318C14.4947 29.8472 14.6213 29.8374 14.7421 29.8029C14.863 29.7685 14.9757 29.7101 15.0735 29.6312C15.1714 29.5523 15.2524 29.4545 15.3117 29.3437C16.7273 26.8969 19.2273 25.4375 21.9999 25.4375C24.7726 25.4375 27.2726 26.8976 28.6882 29.3437C28.8168 29.5504 29.0206 29.699 29.2567 29.7581C29.4928 29.8172 29.7426 29.7821 29.9533 29.6604C30.1641 29.5386 30.3192 29.3397 30.3859 29.1057C30.4526 28.8716 30.4257 28.6208 30.3109 28.4062ZM17.9374 19.5C17.9374 18.6965 18.1757 17.9111 18.6221 17.243C19.0685 16.5749 19.703 16.0542 20.4453 15.7467C21.1876 15.4393 22.0044 15.3588 22.7925 15.5156C23.5805 15.6723 24.3044 16.0592 24.8726 16.6274C25.4407 17.1955 25.8276 17.9194 25.9844 18.7074C26.1411 19.4955 26.0607 20.3123 25.7532 21.0546C25.4457 21.797 24.925 22.4314 24.2569 22.8778C23.5889 23.3242 22.8034 23.5625 21.9999 23.5625C20.9229 23.5613 19.8903 23.1328 19.1287 22.3712C18.3671 21.6096 17.9387 20.5771 17.9374 19.5Z" fill="white"/>
</svg>
