<svg width="18" height="15" viewBox="0 0 18 15" fill="none" xmlns="http://www.w3.org/2000/svg">
<path d="M15.9515 0.987358C15.7591 0.86286 15.539 0.787542 15.3106 0.768023C15.0822 0.748504 14.8526 0.785383 14.6418 0.875418L7.73507 3.59557C7.57156 3.66212 7.39669 3.69633 7.22015 3.69631H2.79851C2.4274 3.69631 2.0715 3.84373 1.80909 4.10615C1.54667 4.36856 1.39925 4.72446 1.39925 5.09557V5.20751H0V8.56572H1.39925V8.71124C1.40802 9.07649 1.55931 9.42383 1.82077 9.67902C2.08224 9.93421 2.43315 10.077 2.79851 10.0769L4.47761 13.6366C4.59131 13.8763 4.77031 14.0791 4.99406 14.2217C5.21781 14.3642 5.47723 14.4408 5.74254 14.4426H6.44776C6.81692 14.4396 7.16996 14.2909 7.42995 14.0288C7.68995 13.7667 7.83583 13.4125 7.83582 13.0433V10.2112L14.6418 12.9314C14.8092 12.998 14.9877 13.0322 15.1679 13.0321C15.4474 13.0276 15.7196 12.9421 15.9515 12.7859C16.1356 12.6616 16.2875 12.4952 16.3945 12.3005C16.5016 12.1059 16.5608 11.8885 16.5672 11.6665V2.14034C16.5661 1.91256 16.5095 1.68848 16.4022 1.48754C16.2949 1.28661 16.1402 1.11491 15.9515 0.987358ZM6.43657 5.09557V8.71124H2.79851V5.09557H6.43657ZM6.43657 13.0433H5.73134L4.35448 10.0769H6.43657V13.0433ZM8.25 8.87915C8.11709 8.81123 7.97851 8.75504 7.83582 8.71124V5.01721C7.97714 4.98805 8.1157 4.94686 8.25 4.89407L15.1679 2.14034V11.6329L8.25 8.87915ZM16.6007 5.48736V8.28587C16.9719 8.28587 17.3278 8.13844 17.5902 7.87603C17.8526 7.61362 18 7.25772 18 6.88661C18 6.51551 17.8526 6.1596 17.5902 5.89719C17.3278 5.63478 16.9719 5.48736 16.6007 5.48736Z" fill="#55575F"/>
</svg>
