<svg width="18" height="20" viewBox="0 0 18 20" fill="none" xmlns="http://www.w3.org/2000/svg">
<path d="M6.00012 10.6938H12.0001M6.00012 14.2188H9.00012M1.00012 2.7625V16.8625C1.00012 17.3299 1.21084 17.7782 1.58591 18.1088C1.96098 18.4393 2.46969 18.625 3.00012 18.625H15.0001C15.5306 18.625 16.0393 18.4393 16.4143 18.1088C16.7894 17.7782 17.0001 17.3299 17.0001 16.8625V6.58889C17.0001 6.35409 16.9468 6.12166 16.8434 5.90525C16.7401 5.68885 16.5887 5.49283 16.3981 5.3287L11.9581 1.50231C11.5845 1.18035 11.0827 1.00006 10.5601 1H3.00012C2.46969 1 1.96098 1.18569 1.58591 1.51622C1.21084 1.84676 1.00012 2.29506 1.00012 2.7625Z" stroke="#55575F" stroke-width="1.3" stroke-linecap="round" stroke-linejoin="round"/>
</svg>
