<svg width="18" height="21" viewBox="0 0 18 21" fill="none" xmlns="http://www.w3.org/2000/svg">
<path d="M7.68744 0.744998C7.51546 0.744389 7.34297 0.744563 7.17 0.745302C6.33744 0.749172 5.49157 0.771044 4.63849 0.802699L4.8853 1.88511C5.77369 1.78466 6.74765 1.70987 7.72153 1.67248C8.24914 1.65222 8.77354 1.64152 9.2822 1.64422C10.8082 1.65217 12.1928 1.78032 13.0987 2.13131L13.486 2.28149L13.3131 2.65914C12.0494 5.41962 11.7572 8.08279 11.9552 10.6958C12.0529 7.59475 13.342 4.83657 15.0342 1.30066C12.7315 0.918015 10.267 0.753564 7.68744 0.744954V0.744998ZM8.90643 2.43168C8.52639 2.43199 8.13896 2.43968 7.75157 2.45455C5.93957 2.52413 4.13388 2.73676 2.95702 2.98052C4.27163 5.41897 5.33508 7.86303 6.0218 10.2457C6.10722 10.2428 6.19272 10.2435 6.27808 10.2476C6.4528 10.2562 6.6256 10.2799 6.79444 10.3167C6.09546 8.08188 5.29929 6.02068 4.30959 3.96261L4.08596 3.49761L4.5941 3.40769C5.87057 3.18167 7.18809 3.09418 8.44203 3.09379C8.52561 3.09379 8.609 3.09409 8.69197 3.09483C9.48874 3.10179 10.2566 3.14301 10.9681 3.20506L11.4488 3.24702L11.3086 3.70868C10.4954 6.38559 10.3362 9.26043 10.7959 11.9956C10.8036 12.0027 10.8113 12.0098 10.8188 12.017C10.9846 11.9589 11.1397 11.8996 11.2843 11.8363C10.9254 8.90587 11.0844 5.88258 12.4248 2.73976C11.6768 2.54917 10.5365 2.44955 9.28364 2.4339C9.1579 2.43234 9.03217 2.43162 8.90643 2.43173V2.43168ZM15.209 2.7528C13.8629 5.60334 12.9069 7.88765 12.7502 10.3537C13.6215 7.44895 15.3056 4.84509 17.2247 3.17219C16.5586 3.00603 15.8861 2.86612 15.209 2.7528ZM2.38336 3.55849C1.56763 3.72668 0.77077 3.94018 0 4.23516C0.37508 4.56041 1.05315 5.16547 1.87583 5.96963C2.25448 5.5799 2.64065 5.19486 3.04342 4.84474C2.83009 4.41259 2.61005 3.98379 2.38336 3.55849ZM8.55887 3.88382C7.96664 3.88095 7.36041 3.89791 6.752 3.94005C6.68817 4.53497 6.33631 5.09155 5.91605 5.63891C6.58703 7.22467 7.16652 8.84282 7.68822 10.5609C8.48721 10.7965 9.27768 11.0751 9.918 11.4089C9.68015 9.56276 9.71268 7.67106 10.0215 5.8211C9.46122 5.24234 9.16936 4.59967 9.14597 3.89308C8.95031 3.88787 8.7546 3.88478 8.55887 3.88382ZM16.4735 5.0572C15.3981 6.33123 14.4506 7.92691 13.8049 9.66251C14.9904 7.97617 16.4482 6.66083 18 5.7317C17.4945 5.49947 16.9856 5.27461 16.4735 5.0572ZM3.39655 5.5772C2.76196 6.15065 2.13495 6.83893 1.48197 7.49465C2.88597 8.32912 4.08183 9.31735 5.05736 10.4367C5.11793 10.4138 5.17911 10.3932 5.24064 10.3745C4.78416 8.80495 4.15858 7.19884 3.39655 5.5772ZM13.5448 11.0017C12.8318 11.8622 12.1606 12.3164 11.2363 12.6788C11.3403 13.0798 11.1859 13.54 10.8304 13.8921C10.6214 14.0991 10.3587 14.335 9.97453 14.4884C10.0299 14.5212 10.0865 14.5521 10.1441 14.5809C10.6817 14.8492 11.6315 14.7627 12.5139 14.3614C13.3936 13.9613 14.1794 13.2703 14.4706 12.5703C14.6166 12.1768 14.5124 11.9715 14.2568 11.6705C14.0749 11.4564 13.8092 11.2405 13.5448 11.0018V11.0017ZM6.14933 11.0272C5.68342 11.0229 5.21024 11.1574 4.8192 11.4516C4.26306 11.87 3.83433 12.6162 3.8305 13.8837V13.8924L3.83007 13.9011C3.7031 16.5701 3.89964 17.8015 4.28902 18.4696C4.63271 19.0593 5.20433 19.3416 6.0405 19.8608C6.08033 19.7562 6.12181 19.6275 6.16073 19.4652C6.25973 19.0522 6.34166 18.4849 6.39357 17.8574C6.49745 16.6026 6.48228 15.0959 6.30857 14.0116L6.21677 13.4381L6.78274 13.5683C8.15744 13.8846 8.94382 13.9219 9.40039 13.8414C9.85704 13.7608 10.0118 13.6012 10.2796 13.336C10.5314 13.0867 10.5267 12.997 10.4734 12.8567C10.4201 12.7164 10.206 12.4852 9.84291 12.2639C9.11662 11.8215 7.8825 11.4112 6.72895 11.1053C6.53976 11.0552 6.34504 11.029 6.14933 11.0272ZM14.3719 14.0456C13.9365 14.4697 13.4007 14.8179 12.8379 15.0738C11.9255 15.4887 10.922 15.6785 10.0894 15.4022C9.79542 15.5116 9.62467 15.6374 9.53853 15.7414C9.42035 15.8842 9.41295 15.9893 9.453 16.1397C9.493 16.2902 9.61236 16.4688 9.75994 16.5973C9.90748 16.7258 10.0828 16.7926 10.1495 16.7958C12.1842 16.8924 13.0648 16.3085 14.1619 15.6312C14.4819 15.4337 14.6043 15.0336 14.5737 14.6341C14.5583 14.4343 14.5002 14.2466 14.4331 14.1284C14.4164 14.0982 14.3958 14.0704 14.3719 14.0456ZM7.14565 14.4411C7.26422 15.5311 7.26618 16.8028 7.17356 17.922C7.11934 18.5774 7.03551 19.1734 6.92184 19.6476C6.8724 19.854 6.81801 20.0369 6.75226 20.1981L13.131 19.9169C13.059 19.6496 12.9856 19.3811 12.9122 19.1124C12.6672 19.194 12.4167 19.2583 12.1626 19.3048L12.1645 19.3365L11.8029 19.3591C11.5802 19.3858 11.3484 19.4005 11.1079 19.4022L7.4615 19.6287L7.5699 19.124C7.91546 17.5149 7.94733 16.0981 7.73418 14.5482C7.53731 14.5163 7.34108 14.4806 7.1456 14.4411H7.14565ZM8.53587 14.6448C8.70754 16.0333 8.68688 17.3585 8.43125 18.7843L9.26889 18.7323C9.13754 18.5385 9.04727 18.3198 9.00365 18.0897C8.9473 17.7906 8.97865 17.4576 9.17437 17.1822C9.18302 17.17 9.19237 17.1583 9.20163 17.1465C8.97352 16.9359 8.78298 16.6655 8.69662 16.3411C8.6047 15.9956 8.6621 15.5727 8.93565 15.2423C9.02605 15.1331 9.13532 15.0346 9.26363 14.9459C9.15014 14.8554 9.05066 14.7596 8.96474 14.6597C8.8315 14.6606 8.68884 14.6556 8.53587 14.6448ZM14.3045 16.4617C13.2846 17.0814 12.1386 17.6738 10.1124 17.5776C10.0462 17.5744 9.9805 17.5654 9.91591 17.5509C9.8623 17.5749 9.83369 17.6055 9.81234 17.6355C9.77047 17.6945 9.74572 17.8008 9.77281 17.9448C9.82708 18.233 10.1 18.5488 10.3542 18.5783C12.1537 18.7876 13.397 18.1989 14.152 17.514C14.4998 17.1984 14.5028 16.9966 14.4516 16.7769C14.4259 16.6672 14.3694 16.5609 14.3045 16.4617ZM14.0139 18.595C13.8931 18.6708 13.7691 18.7413 13.6423 18.8064C13.714 19.0695 13.7859 19.3326 13.8569 19.5957L14.7231 19.4404C14.4996 19.2497 14.3247 19.0511 14.1844 18.8536C14.1217 18.7653 14.0664 18.6796 14.0139 18.595Z" fill="#55575F"/>
</svg>
