<svg width="18" height="16" viewBox="0 0 18 16" fill="none" xmlns="http://www.w3.org/2000/svg">
<path d="M16.8948 5.42497L15.6636 1.80744C15.485 1.28088 15.1415 0.822823 14.6818 0.498354C14.2221 0.173885 13.6697 -0.000491919 13.1031 1.04232e-06H4.8969C4.33025 -0.000491919 3.77785 0.173885 3.3182 0.498354C2.85854 0.822823 2.515 1.28088 2.3364 1.80744L1.1052 5.42497C0.778151 5.55935 0.498849 5.78519 0.30226 6.07425C0.105671 6.3633 0.00053018 6.70272 0 7.05V11.4562C0 12.1198 0.3807 12.6918 0.9351 12.9923C0.9234 13.0504 0.9 13.1033 0.9 13.1641V14.9812C0.9 15.215 0.994821 15.4391 1.1636 15.6044C1.33239 15.7697 1.56131 15.8625 1.8 15.8625H2.7C2.93869 15.8625 3.16761 15.7697 3.3364 15.6044C3.50518 15.4391 3.6 15.215 3.6 14.9812V13.2187H14.4V14.9812C14.4 15.215 14.4948 15.4391 14.6636 15.6044C14.8324 15.7697 15.0613 15.8625 15.3 15.8625H16.2C16.4387 15.8625 16.6676 15.7697 16.8364 15.6044C17.0052 15.4391 17.1 15.215 17.1 14.9812V13.1641C17.1 13.1033 17.0766 13.0495 17.0649 12.9923C17.347 12.8417 17.5825 12.6197 17.747 12.3495C17.9115 12.0793 17.9989 11.7708 18 11.4562V7.05C18 6.31944 17.5428 5.69199 16.8948 5.42497ZM1.8 11.4562V7.05H16.2L16.2018 11.4562H1.8ZM4.8969 1.7625H13.1022C13.4901 1.7625 13.8339 2.00396 13.9563 2.36528L14.9517 5.2875H3.0483L4.0428 2.36528C4.10251 2.18973 4.21714 2.03703 4.37044 1.92884C4.52374 1.82065 4.70793 1.76246 4.8969 1.7625Z" fill="#55575F"/>
</svg>
