<svg width="44" height="44" viewBox="0 0 44 44" fill="none" xmlns="http://www.w3.org/2000/svg">
<circle cx="21.75" cy="21.75" r="21.75" fill="#FFBD3D"/>
<g clip-path="url(#clip0_7897_101743)">
<path d="M29.8602 14.25H13.1935C12.2852 14.2833 11.5602 15.0083 11.5269 15.9167V27.5833C11.5602 28.4917 12.2852 29.2167 13.1935 29.25H29.8602C30.7685 29.2167 31.4935 28.4917 31.5269 27.5833V15.9167C31.5115 15.4795 31.331 15.0645 31.0217 14.7552C30.7124 14.4459 30.2973 14.2653 29.8602 14.25ZM29.8602 27.5833H13.1935V15.9167H29.8602V27.5833ZM23.1935 25.9167V24.875C23.1935 23.4917 20.4102 22.7917 19.0269 22.7917C17.6435 22.7917 14.8602 23.4917 14.8602 24.875V25.9167H23.1935ZM19.0269 17.5833C18.4743 17.5833 17.9444 17.8028 17.5537 18.1935C17.163 18.5842 16.9435 19.1141 16.9435 19.6667C16.9435 19.9403 16.9974 20.2112 17.1021 20.4639C17.2068 20.7167 17.3603 20.9464 17.5537 21.1398C17.9444 21.5305 18.4743 21.75 19.0269 21.75C19.3004 21.75 19.5714 21.6961 19.8241 21.5914C20.0769 21.4867 20.3065 21.3333 20.5 21.1398C20.6934 20.9464 20.8469 20.7167 20.9516 20.4639C21.0563 20.2112 21.1102 19.9403 21.1102 19.6667C21.1102 19.3931 21.0563 19.1222 20.9516 18.8694C20.8469 18.6166 20.6934 18.387 20.5 18.1935C20.3065 18.0001 20.0769 17.8466 19.8241 17.7419C19.5714 17.6372 19.3004 17.5833 19.0269 17.5833ZM23.1935 17.5833V18.4167H28.1935V17.5833H23.1935ZM23.1935 19.25V20.0833H28.1935V19.25H23.1935ZM23.1935 20.9167V21.75H26.5269V20.9167H23.1935Z" fill="white"/>
</g>
<defs>
<clipPath id="clip0_7897_101743">
<rect width="20" height="20" fill="white" transform="translate(11.5269 11.75)"/>
</clipPath>
</defs>
</svg>
